<svg width="103" height="45" viewBox="0 0 103 45" fill="none" xmlns="http://www.w3.org/2000/svg">
<path d="M37.7017 13.4834C39.4133 13.4834 40.9456 13.8777 42.2896 14.6729C43.6262 15.4637 44.6795 16.519 45.4448 17.8359C46.2113 19.155 46.5942 20.6082 46.5942 22.1895C46.5942 23.3597 46.3747 24.4718 45.9351 25.5225C45.4963 26.5711 44.8766 27.4983 44.0776 28.3018C43.2782 29.1056 42.3383 29.7407 41.2612 30.208L41.2593 30.209C40.1756 30.6679 38.9882 30.8955 37.7017 30.8955C36.0008 30.8955 34.4749 30.5009 33.1313 29.7061C31.7947 28.9152 30.7414 27.86 29.9761 26.543C29.2095 25.2238 28.8267 23.7708 28.8267 22.1895C28.8267 21.0192 29.0462 19.9071 29.4858 18.8564C29.9246 17.8079 30.5443 16.8806 31.3433 16.0771C32.1428 15.2624 33.0827 14.6265 34.1606 14.1699C35.244 13.7111 36.4258 13.4834 37.7017 13.4834Z" fill="black" stroke="black" stroke-width="0.548969"/>
<path d="M62.3261 34.3494C59.9673 34.3494 57.8645 33.7985 56.0178 32.6967C54.1711 31.5949 52.7202 30.1284 51.6649 28.2972C50.6097 26.466 50.082 24.4486 50.082 22.245C50.082 20.6156 50.3846 19.0715 50.9899 17.6127C51.5951 16.154 52.4486 14.866 53.5504 13.7487C54.6522 12.6158 55.948 11.7313 57.4378 11.095C58.9275 10.4588 60.557 10.1406 62.3261 10.1406C64.7004 10.1406 66.8109 10.6915 68.6576 11.7933C70.5043 12.8951 71.9553 14.3616 73.0105 16.1928C74.0658 18.024 74.5934 20.0414 74.5934 22.245C74.5934 23.8744 74.2908 25.4185 73.6856 26.8772C73.0803 28.336 72.2268 29.624 71.125 30.7413C70.0232 31.8587 68.7274 32.7432 67.2377 33.395C65.7479 34.0312 64.1107 34.3494 62.3261 34.3494ZM62.3261 30.4853C63.8624 30.4853 65.2203 30.1516 66.3997 29.4843C67.5946 28.8015 68.5334 27.8472 69.2163 26.6212C69.8991 25.3797 70.2405 23.921 70.2405 22.245C70.2405 20.5535 69.8991 19.0948 69.2163 17.8688C68.549 16.6273 67.6179 15.6729 66.4229 15.0057C65.228 14.3384 63.8624 14.0047 62.3261 14.0047C60.7897 14.0047 59.4241 14.3384 58.2292 15.0057C57.0498 15.6729 56.1187 16.6273 55.4359 17.8688C54.7686 19.0948 54.4349 20.5535 54.4349 22.245C54.4349 23.921 54.7686 25.3797 55.4359 26.6212C56.1187 27.8472 57.0576 28.8015 58.2525 29.4843C59.4474 30.1516 60.8053 30.4853 62.3261 30.4853Z" fill="black"/>
<path d="M12.244 34.4314C9.88524 34.4314 7.78249 33.8805 5.9358 32.7787C4.0891 31.6769 2.63813 30.2104 1.58288 28.3792C0.527626 26.548 0 24.5306 0 22.327C0 20.6976 0.302609 19.1535 0.907828 17.6948C1.51305 16.236 2.36656 14.948 3.46837 13.8307C4.57017 12.6978 5.86597 11.8133 7.35573 11.177C8.8455 10.5408 10.4749 10.2227 12.244 10.2227C14.6184 10.2227 16.7289 10.7736 18.5756 11.8754C20.4222 12.9772 21.8732 14.4437 22.9285 16.2748C23.9837 18.106 24.5114 20.1234 24.5114 22.327C24.5114 23.9565 24.2087 25.5005 23.6035 26.9593C22.9983 28.418 22.1448 29.706 21.043 30.8234C19.9412 31.9407 18.6454 32.8252 17.1556 33.477C15.6659 34.1133 14.0287 34.4314 12.244 34.4314ZM12.244 30.5673C13.7804 30.5673 15.1382 30.2337 16.3176 29.5664C17.5125 28.8836 18.4514 27.9292 19.1342 26.7032C19.817 25.4618 20.1584 24.003 20.1584 22.327C20.1584 20.6355 19.817 19.1768 19.1342 17.9508C18.4669 16.7094 17.5358 15.755 16.3409 15.0877C15.146 14.4204 13.7804 14.0867 12.244 14.0867C10.7077 14.0867 9.34209 14.4204 8.14717 15.0877C6.96777 15.755 6.03667 16.7094 5.35386 17.9508C4.68656 19.1768 4.35292 20.6355 4.35292 22.327C4.35292 24.003 4.68656 25.4618 5.35386 26.7032C6.03667 27.9292 6.97553 28.8836 8.17045 29.5664C9.36537 30.2337 10.7232 30.5673 12.244 30.5673Z" fill="black"/>
<path d="M4.25977 13.9365C5.1115 12.9396 6.11263 12.0963 7.2627 11.4062C8.83006 10.4751 10.7084 10.0088 12.8965 10.0088C15.1775 10.0088 17.179 10.5525 18.9014 11.6387C20.6394 12.7249 21.99 14.1835 22.9521 16.0146C23.9298 17.8458 24.4189 19.8787 24.4189 22.1133C24.4189 23.8203 24.1397 25.4115 23.5811 26.8857C23.0224 28.3444 22.2302 29.6248 21.2061 30.7266C20.1975 31.8281 18.995 32.6889 17.5986 33.3096C16.202 33.9148 14.6494 34.2178 12.9424 34.2178C11.4063 34.2177 10.0177 33.985 8.77637 33.5195C8.6008 33.4559 8.42882 33.3872 8.25977 33.3164C4.07493 30.8244 -0.000313039 25.9248 0 21.9521V0H4.25977V13.9365ZM12.1748 13.873C10.6386 13.873 9.27296 14.2069 8.07812 14.874C6.89872 15.5413 5.96699 16.4958 5.28418 17.7373C4.60144 18.9632 4.25979 20.4219 4.25977 22.1133C4.25977 23.7891 4.60153 25.2479 5.28418 26.4893C5.96699 27.7152 6.89872 28.6697 8.07812 29.3525C9.273 30.0198 10.6386 30.3535 12.1748 30.3535C13.711 30.3535 15.0687 30.0198 16.248 29.3525C17.443 28.6697 18.3747 27.7152 19.042 26.4893C19.7246 25.2479 20.0654 23.789 20.0654 22.1133C20.0654 20.422 19.7247 18.9632 19.042 17.7373C18.3747 16.4958 17.443 15.5413 16.248 14.874C15.0687 14.2068 13.711 13.8731 12.1748 13.873Z" fill="black"/>
<path d="M89.9354 9.9768C87.5766 9.9768 85.4739 10.5277 83.6272 11.6295C81.7805 12.7313 80.3295 14.1978 79.2743 16.029C78.219 17.8602 77.6914 19.8776 77.6914 22.0812C77.6914 23.7106 77.994 25.2547 78.5992 26.7134C79.2045 28.1722 80.058 29.4602 81.1598 30.5775C82.2616 31.7104 83.5574 32.5949 85.0471 33.2312C86.5369 33.8674 88.1663 34.1855 89.9354 34.1855C92.3098 34.1855 94.4203 33.6346 96.267 32.5328C98.1137 31.431 99.5646 29.9645 100.62 28.1334C101.675 26.3022 102.203 24.2848 102.203 22.0812C102.203 20.4517 101.9 18.9077 101.295 17.4489C100.69 15.9902 99.8362 14.7022 98.7344 13.5848C97.6326 12.4675 96.3368 11.583 94.847 10.9312C93.3573 10.2949 91.7201 9.9768 89.9354 9.9768ZM89.9354 13.8409C91.4718 13.8409 92.8296 14.1745 94.009 14.8418C95.204 15.5246 96.1428 16.479 96.8256 17.705C97.5084 18.9465 97.8498 20.4052 97.8498 22.0812C97.8498 23.7727 97.5084 25.2314 96.8256 26.4574C96.1583 27.6988 95.2272 28.6532 94.0323 29.3205C92.8374 29.9878 91.4718 30.3215 89.9354 30.3215C88.3991 30.3215 87.0335 29.9878 85.8386 29.3205C84.6592 28.6532 83.7281 27.6988 83.0453 26.4574C82.378 25.2314 82.0443 23.7727 82.0443 22.0812C82.0443 20.4052 82.378 18.9465 83.0453 17.705C83.7281 16.479 84.6669 15.5246 85.8619 14.8418C87.0568 14.1745 88.4146 13.8409 89.9354 13.8409Z" fill="black"/>
<path d="M81.9512 30.4707C82.8031 31.4679 83.8038 32.3118 84.9541 33.002C86.5214 33.933 88.3989 34.3984 90.5869 34.3984C92.8681 34.3984 94.8702 33.8558 96.5928 32.7695C98.3308 31.6833 99.6814 30.2247 100.644 28.3936C101.621 26.5625 102.109 24.5294 102.109 22.2949C102.109 20.5879 101.83 18.9967 101.271 17.5225C100.713 16.0638 99.9216 14.7834 98.8975 13.6816C97.8888 12.5798 96.6857 11.7184 95.2891 11.0977C93.8925 10.4925 92.3407 10.1904 90.6338 10.1904C89.0975 10.1904 87.7083 10.4231 86.4668 10.8887C86.2911 10.9524 86.1193 11.021 85.9502 11.0918C81.7654 13.5839 77.6911 18.4835 77.6914 22.4561V44.4082H81.9512V30.4707ZM89.8652 30.5352C88.3291 30.5351 86.9634 30.2014 85.7686 29.5342C84.5892 28.8669 83.6584 27.9122 82.9756 26.6709C82.2928 25.445 81.9512 23.9862 81.9512 22.2949C81.9512 20.6189 82.2928 19.1594 82.9756 17.918C83.6584 16.6922 84.5893 15.7374 85.7686 15.0547C86.9634 14.3875 88.3291 14.0538 89.8652 14.0537C91.4016 14.0537 92.7601 14.3874 93.9395 15.0547C95.1343 15.7374 96.0651 16.6922 96.7324 17.918C97.4152 19.1594 97.7568 20.6189 97.7568 22.2949C97.7568 23.9862 97.4152 25.445 96.7324 26.6709C96.0652 27.9123 95.1343 28.8669 93.9395 29.5342C92.7601 30.2015 91.4016 30.5352 89.8652 30.5352Z" fill="black"/>
</svg>
